<?xml version="1.0" encoding="iso-8859-1"?>
<!-- Generator: Adobe Illustrator 19.0.0, SVG Export Plug-In . SVG Version: 6.00 Build 0)  -->
<svg version="1.1" id="Capa_1" xmlns="http://www.w3.org/2000/svg" xmlns:xlink="http://www.w3.org/1999/xlink" x="0px" y="0px"
	 viewBox="0 0 512 512" style="enable-background:new 0 0 512 512;" xml:space="preserve">
<rect x="30" y="271" style="fill:#FC4629;" width="452" height="120"/>
<rect x="256" y="271" style="fill:#FF2615;" width="226" height="120"/>
<path style="fill:#6ECD24;" d="M512,293.2l-14.099,6.301C484.999,305.5,477.499,313,466.099,321.4c-11.1,8.101-25.499,11.4-39.3,9
	C413,327.999,401.3,320.2,393.5,308.5c-8.099-12.001-26.999-12.001-35.099,0c-9.6,14.399-26.499,22.8-43.599,22.8
	s-33.001-8.401-42.301-22.8c-3.6-5.7-9.901-8.701-16.5-9c-6.899-0.3-14.399,2.699-18.6,9c-9.6,14.399-25.499,22.8-42.599,22.8
	s-33.001-8.401-42.301-22.8c-8.099-12.001-26.999-12.001-35.099,0c-7.8,11.999-20.099,19.799-33.9,22.2
	c-2.999,0.3-5.7,0.601-8.401,0.601c-11.398,0-23.2-3.6-32.199-10.501c-10.501-8.1-17.403-15.301-29.402-21.3L0,292.899l31.5-73.5
	h449L512,293.2z"/>
<path style="fill:#66BD21;" d="M272.5,308.5c-3.6-5.7-9.901-8.701-16.5-9v-80.101h224.5L512,293.2l-14.099,6.301
	C484.999,305.5,477.499,313,466.099,321.4c-11.1,8.101-25.499,11.4-39.3,9C413,327.999,401.3,320.2,393.5,308.5
	c-8.099-12.001-26.999-12.001-35.099,0c-9.6,14.399-26.499,22.8-43.599,22.8S281.8,322.899,272.5,308.5z"/>
<path style="fill:#FEA832;" d="M256,31C132.7,31,0,43.599,0,196v45h512v-45C512,43.599,379.3,31,256,31z"/>
<path style="fill:#FE9923;" d="M512,196v45H256V31C379.3,31,512,43.599,512,196z"/>
<rect x="241" y="151" style="fill:#FEDB41;" width="30" height="30"/>
<g>
	<rect x="301" y="91" style="fill:#FCBF29;" width="30" height="30"/>
	<rect x="362" y="151" style="fill:#FCBF29;" width="30" height="30"/>
</g>
<g>
	<rect x="121" y="151" style="fill:#FEDB41;" width="30" height="30"/>
	<rect x="181" y="91" style="fill:#FEDB41;" width="30" height="30"/>
</g>
<rect x="256" y="151" style="fill:#FCBF29;" width="15" height="30"/>
<path style="fill:#FEA832;" d="M0,361v15c0,57.9,48.1,105,106,105h301c57.9,0,105-47.1,105-105v-15H0z"/>
<path style="fill:#FE9923;" d="M256,361h256v15c0,57.9-47.1,105-105,105H256V361z"/>
<g>
</g>
<g>
</g>
<g>
</g>
<g>
</g>
<g>
</g>
<g>
</g>
<g>
</g>
<g>
</g>
<g>
</g>
<g>
</g>
<g>
</g>
<g>
</g>
<g>
</g>
<g>
</g>
<g>
</g>
</svg>
